# Blender v3.2.0 OBJ File: ''
# www.blender.org
g 00
v 0.007704 1.000260 0.999709
v 0.003114 1.000130 0.499731
v 0.003852 0.500131 0.499855
v 0.008441 0.500261 0.999833
vt 0.000000 0.000000
vt 0.250000 0.000000
vt 0.250000 0.250000
vt 0.000000 0.250000
vn -1.0000 -0.0015 0.0092
s 1
f 1/1/1 2/2/1 3/3/1 4/4/1
g 01
v 0.003114 1.000130 0.499731
v 0.003852 0.500131 0.499855
v -0.001475 0.999998 -0.000249
v -0.000738 0.499999 -0.000124
vt 0.250000 0.000000
vt 0.500000 0.000000
vt 0.500000 0.250000
vt 0.250000 0.250000
vn -1.0000 -0.0015 0.0092
s 1
f 5/5/2 7/6/2 8/7/2 6/8/2
g 02
v -0.001475 0.999998 -0.000249
v -0.000738 0.499999 -0.000124
v -0.006065 0.999868 -0.500227
v -0.005327 0.499869 -0.500104
vt 0.500000 0.000000
vt 0.750000 0.000000
vt 0.750000 0.250000
vt 0.500000 0.250000
vn -1.0000 -0.0015 0.0092
s 1
f 9/9/3 11/10/3 12/11/3 10/12/3
g 03
v -0.006065 0.999868 -0.500227
v -0.005327 0.499869 -0.500104
v -0.010654 0.999737 -1.000206
v -0.009917 0.499737 -1.000082
vt 0.750000 0.000000
vt 1.000000 0.000000
vt 1.000000 0.250000
vt 0.750000 0.250000
vn -1.0000 -0.0015 0.0092
s 1
f 13/13/4 15/14/4 16/15/4 14/16/4
g 04
v 0.003852 0.500131 0.499855
v 0.008441 0.500261 0.999833
v 0.004590 0.000131 0.499979
v 0.009179 0.000262 0.999958
vt 0.000000 0.250000
vt 0.250000 0.250000
vt 0.250000 0.500000
vt 0.000000 0.500000
vn -1.0000 -0.0015 0.0092
s 1
f 18/17/5 17/18/5 19/19/5 20/20/5
g 05
v 0.003852 0.500131 0.499855
v 0.004590 0.000131 0.499979
v -0.000738 0.499999 -0.000124
v 0.000000 0.000000 0.000000
vt 0.250000 0.250000
vt 0.500000 0.250000
vt 0.500000 0.500000
vt 0.250000 0.500000
vn -1.0000 -0.0015 0.0092
s 1
f 21/21/6 23/22/6 24/23/6 22/24/6
g 06
v -0.000738 0.499999 -0.000124
v 0.000000 0.000000 0.000000
v -0.005327 0.499869 -0.500104
v -0.004590 -0.000131 -0.499979
vt 0.500000 0.250000
vt 0.750000 0.250000
vt 0.750000 0.500000
vt 0.500000 0.500000
vn -1.0000 -0.0015 0.0092
s 1
f 25/25/7 27/26/7 28/27/7 26/28/7
g 07
v -0.005327 0.499869 -0.500104
v -0.004590 -0.000131 -0.499979
v -0.009917 0.499737 -1.000082
v -0.009179 -0.000262 -0.999958
vt 0.750000 0.250000
vt 1.000000 0.250000
vt 1.000000 0.500000
vt 0.750000 0.500000
vn -1.0000 -0.0015 0.0092
s 1
f 29/29/8 31/30/8 32/31/8 30/32/8
g 08
v 0.009917 -0.499737 1.000082
v 0.005327 -0.499869 0.500104
v 0.004590 0.000131 0.499979
v 0.009179 0.000262 0.999958
vt 0.000000 0.500000
vt 0.250000 0.500000
vt 0.250000 0.750000
vt 0.000000 0.750000
vn -1.0000 -0.0015 0.0092
s 1
f 36/33/9 35/34/9 34/35/9 33/36/9
g 09
v 0.005327 -0.499869 0.500104
v 0.000738 -0.499999 0.000124
v 0.004590 0.000131 0.499979
v 0.000000 0.000000 0.000000
vt 0.250000 0.500000
vt 0.500000 0.500000
vt 0.500000 0.750000
vt 0.250000 0.750000
vn -1.0000 -0.0015 0.0092
s 1
f 39/37/10 40/38/10 38/39/10 37/40/10
g 10
v -0.003852 -0.500131 -0.499855
v 0.000738 -0.499999 0.000124
v 0.000000 0.000000 0.000000
v -0.004590 -0.000131 -0.499979
vt 0.500000 0.500000
vt 0.750000 0.500000
vt 0.750000 0.750000
vt 0.500000 0.750000
vn -1.0000 -0.0015 0.0092
s 1
f 43/41/11 44/42/11 41/43/11 42/44/11
g 11
v -0.003852 -0.500131 -0.499855
v -0.008441 -0.500261 -0.999833
v -0.004590 -0.000131 -0.499979
v -0.009179 -0.000262 -0.999958
vt 0.750000 0.500000
vt 1.000000 0.500000
vt 1.000000 0.750000
vt 0.750000 0.750000
vn -1.0000 -0.0015 0.0092
s 1
f 47/45/12 48/46/12 46/47/12 45/48/12
g 12
v 0.009917 -0.499737 1.000082
v 0.005327 -0.499869 0.500104
v 0.006065 -0.999868 0.500227
v 0.010654 -0.999737 1.000206
vt 0.000000 0.750000
vt 0.250000 0.750000
vt 0.250000 1.000000
vt 0.000000 1.000000
vn -1.0000 -0.0015 0.0092
s 1
f 49/49/13 50/50/13 51/51/13 52/52/13
g 13
v 0.005327 -0.499869 0.500104
v 0.006065 -0.999868 0.500227
v 0.000738 -0.499999 0.000124
v 0.001475 -0.999998 0.000249
vt 0.250000 0.750000
vt 0.500000 0.750000
vt 0.500000 1.000000
vt 0.250000 1.000000
vn -1.0000 -0.0015 0.0092
s 1
f 53/53/14 55/54/14 56/55/14 54/56/14
g 14
v -0.003852 -0.500131 -0.499855
v -0.003114 -1.000130 -0.499731
v 0.000738 -0.499999 0.000124
v 0.001475 -0.999998 0.000249
vt 0.500000 0.750000
vt 0.750000 0.750000
vt 0.750000 1.000000
vt 0.500000 1.000000
vn -1.0000 -0.0015 0.0092
s 1
f 59/57/15 57/58/15 58/59/15 60/60/15
g 15
v -0.003852 -0.500131 -0.499855
v -0.008441 -0.500261 -0.999833
v -0.007704 -1.000260 -0.999709
v -0.003114 -1.000130 -0.499731
vt 0.750000 0.750000
vt 1.000000 0.750000
vt 1.000000 1.000000
vt 0.750000 1.000000
vn -1.0000 -0.0015 0.0092
s 1
f 61/61/16 62/62/16 63/63/16 64/64/16
